<?xml version="1.0" encoding="UTF-8" standalone="no"?>
<!-- Created with Inkscape (http://www.inkscape.org/) -->

<svg
   xmlns:dc="http://purl.org/dc/elements/1.1/"
   xmlns:cc="http://creativecommons.org/ns#"
   xmlns:rdf="http://www.w3.org/1999/02/22-rdf-syntax-ns#"
   xmlns:svg="http://www.w3.org/2000/svg"
   xmlns="http://www.w3.org/2000/svg"
   xmlns:xlink="http://www.w3.org/1999/xlink"
   xmlns:sodipodi="http://sodipodi.sourceforge.net/DTD/sodipodi-0.dtd"
   xmlns:inkscape="http://www.inkscape.org/namespaces/inkscape"
   width="600"
   height="400"
   id="svg2"
   version="1.1"
   inkscape:version="0.48.4 r9939"
   sodipodi:docname="party.svg"
   inkscape:export-filename="C:\Users\joseph\Desktop\WHISKEY_VID_PARTY.png"
   inkscape:export-xdpi="44.889179"
   inkscape:export-ydpi="44.889179">
  <defs
     id="defs4">
    <linearGradient
       id="linearGradient4247">
      <stop
         style="stop-color:#666666;stop-opacity:1;"
         offset="0"
         id="stop4249" />
      <stop
         style="stop-color:#666666;stop-opacity:0;"
         offset="1"
         id="stop4251" />
    </linearGradient>
    <radialGradient
       inkscape:collect="always"
       xlink:href="#linearGradient4247"
       id="radialGradient4255"
       cx="297.53116"
       cy="521.94293"
       fx="297.53116"
       fy="521.94293"
       r="257.42896"
       gradientTransform="matrix(1,0,0,0.17952825,0,428.23941)"
       gradientUnits="userSpaceOnUse" />
  </defs>
  <sodipodi:namedview
     id="base"
     pagecolor="#ffffff"
     bordercolor="#666666"
     borderopacity="1.0"
     inkscape:pageopacity="0.0"
     inkscape:pageshadow="2"
     inkscape:zoom="1.4"
     inkscape:cx="237.69336"
     inkscape:cy="174.56864"
     inkscape:document-units="px"
     inkscape:current-layer="layer1"
     showgrid="false"
     inkscape:showpageshadow="false"
     showguides="true"
     inkscape:guide-bbox="true"
     inkscape:window-width="1871"
     inkscape:window-height="1056"
     inkscape:window-x="49"
     inkscape:window-y="24"
     inkscape:window-maximized="1">
    <sodipodi:guide
       orientation="1,0"
       position="0,420"
       id="guide2995" />
    <sodipodi:guide
       orientation="0,1"
       position="42.857143,1001.4286"
       id="guide2997" />
  </sodipodi:namedview>
  <metadata
     id="metadata7">
    <rdf:RDF>
      <cc:Work
         rdf:about="">
        <dc:format>image/svg+xml</dc:format>
        <dc:type
           rdf:resource="http://purl.org/dc/dcmitype/StillImage" />
        <dc:title></dc:title>
      </cc:Work>
    </rdf:RDF>
  </metadata>
  <g
     inkscape:label="Layer 1"
     inkscape:groupmode="layer"
     id="layer1"
     transform="translate(0,-652.36218)">
    <path
       style="fill:none;stroke:#000000;stroke-width:1.79999994999999990;stroke-linecap:butt;stroke-linejoin:miter;stroke-miterlimit:4;stroke-opacity:0.60730594;stroke-dasharray:1.80000000000000004, 3.60000000000000009;stroke-dashoffset:0"
       d="m 34.28572,917.36218 531.42856,0"
       id="path4317"
       inkscape:connector-curvature="0" />
    <path
       sodipodi:type="arc"
       style="fill:none;stroke:none"
       id="path2999"
       sodipodi:cx="498.57144"
       sodipodi:cy="497.14285"
       sodipodi:rx="498.57144"
       sodipodi:ry="498.57144"
       d="m 997.14288,497.14285 c 0,275.35341 -223.21803,498.57144 -498.57144,498.57144 C 223.21804,995.71429 0,772.49626 0,497.14285 0,221.78945 223.21804,-1.4285889 498.57144,-1.4285889 c 275.35341,0 498.57144,223.2180389 498.57144,498.5714389 z"
       transform="translate(0,52.362183)" />
    <path
       inkscape:connector-curvature="0"
       style="opacity:0.40823969;fill:none;stroke:none"
       d="M 165.70796,357.3262 C 271.8454,173.49077 506.91484,110.50411 690.75027,216.64155 874.58569,322.77898 937.57236,557.84842 831.43493,741.68385 725.29749,925.51928 490.22805,988.50597 306.39263,882.36851 122.5572,776.23107 59.570519,541.16163 165.70796,357.3262 z"
       id="path3771" />
    <rect
       style="fill:#ffffff;stroke:none;stroke-width:1.79999994999999990;stroke-miterlimit:4;stroke-opacity:0.60730596999999997;stroke-dasharray:1.80000000000000004, 3.60000000000000009;stroke-dashoffset:0"
       id="rect4319"
       width="84.285713"
       height="19.285715"
       x="255"
       y="908.07648" />
    <rect
       y="908.07648"
       x="447"
       height="19.285715"
       width="53.571426"
       id="rect4321"
       style="fill:#ffffff;stroke:none" />
    <rect
       style="fill:#ffffff;stroke:none"
       id="rect4323"
       width="53.571426"
       height="19.285715"
       x="93"
       y="908.07648" />
    <g
       id="g4261"
       transform="translate(0,254)">
      <g
         transform="matrix(0.94914565,0,0,0.94914565,-177.22172,163.13158)"
         id="g3862">
        <rect
           style="fill:none;stroke:#000000;stroke-width:4;stroke-miterlimit:4;stroke-opacity:1;stroke-dasharray:none"
           id="rect3800"
           width="347.14285"
           height="250"
           x="327.71429"
           y="260.21933"
           ry="42.799999" />
        <rect
           ry="33.571358"
           y="285.78809"
           x="345.28305"
           height="196.09439"
           width="272.29105"
           id="rect3802"
           style="fill:none;stroke:#000000;stroke-width:3.1375103;stroke-miterlimit:4;stroke-opacity:1;stroke-dasharray:none" />
        <g
           id="g3858"
           transform="translate(-2,0)">
          <path
             transform="translate(0,44.362183)"
             d="m 659.28571,280.71429 c 0,7.88979 -6.39593,14.28572 -14.28571,14.28572 -7.88978,0 -14.28571,-6.39593 -14.28571,-14.28572 0,-7.88978 6.39593,-14.28571 14.28571,-14.28571 7.88978,0 14.28571,6.39593 14.28571,14.28571 z"
             sodipodi:ry="14.285714"
             sodipodi:rx="14.285714"
             sodipodi:cy="280.71429"
             sodipodi:cx="645"
             id="path3804"
             style="fill:none;stroke:#000000;stroke-width:2.9000001;stroke-miterlimit:4;stroke-opacity:1;stroke-dasharray:none"
             sodipodi:type="arc" />
          <path
             sodipodi:type="arc"
             style="fill:none;stroke:#000000;stroke-width:2.9000001;stroke-miterlimit:4;stroke-opacity:1;stroke-dasharray:none"
             id="path3806"
             sodipodi:cx="645"
             sodipodi:cy="280.71429"
             sodipodi:rx="14.285714"
             sodipodi:ry="14.285714"
             d="m 659.28571,280.71429 c 0,7.88979 -6.39593,14.28572 -14.28571,14.28572 -7.88978,0 -14.28571,-6.39593 -14.28571,-14.28572 0,-7.88978 6.39593,-14.28571 14.28571,-14.28571 7.88978,0 14.28571,6.39593 14.28571,14.28571 z"
             transform="translate(0,84.36218)" />
        </g>
        <g
           id="g3840"
           transform="translate(-2,2)">
          <path
             transform="translate(0,52.362183)"
             inkscape:connector-curvature="0"
             id="path3808"
             d="m 631.42857,345 29.28572,0"
             style="fill:none;stroke:#000000;stroke-width:1px;stroke-linecap:butt;stroke-linejoin:miter;stroke-opacity:1" />
          <path
             style="fill:none;stroke:#000000;stroke-width:1px;stroke-linecap:butt;stroke-linejoin:miter;stroke-opacity:1"
             d="m 631.42857,401.36218 29.28572,0"
             id="path3810"
             inkscape:connector-curvature="0" />
          <path
             inkscape:connector-curvature="0"
             id="path3812"
             d="m 631.42857,405.36218 29.28572,0"
             style="fill:none;stroke:#000000;stroke-width:1px;stroke-linecap:butt;stroke-linejoin:miter;stroke-opacity:1" />
          <path
             style="fill:none;stroke:#000000;stroke-width:1px;stroke-linecap:butt;stroke-linejoin:miter;stroke-opacity:1"
             d="m 631.42857,409.36218 29.28572,0"
             id="path3814"
             inkscape:connector-curvature="0" />
          <path
             inkscape:connector-curvature="0"
             id="path3816"
             d="m 631.42857,413.36218 29.28572,0"
             style="fill:none;stroke:#000000;stroke-width:1px;stroke-linecap:butt;stroke-linejoin:miter;stroke-opacity:1" />
          <path
             style="fill:none;stroke:#000000;stroke-width:1px;stroke-linecap:butt;stroke-linejoin:miter;stroke-opacity:1"
             d="m 631.42857,417.36218 29.28572,0"
             id="path3818"
             inkscape:connector-curvature="0" />
          <path
             inkscape:connector-curvature="0"
             id="path3820"
             d="m 631.42857,421.36218 29.28572,0"
             style="fill:none;stroke:#000000;stroke-width:1px;stroke-linecap:butt;stroke-linejoin:miter;stroke-opacity:1" />
          <path
             style="fill:none;stroke:#000000;stroke-width:1px;stroke-linecap:butt;stroke-linejoin:miter;stroke-opacity:1"
             d="m 631.42857,425.36218 29.28572,0"
             id="path3822"
             inkscape:connector-curvature="0" />
          <path
             inkscape:connector-curvature="0"
             id="path3824"
             d="m 631.42857,429.36218 29.28572,0"
             style="fill:none;stroke:#000000;stroke-width:1px;stroke-linecap:butt;stroke-linejoin:miter;stroke-opacity:1" />
          <path
             style="fill:none;stroke:#000000;stroke-width:1px;stroke-linecap:butt;stroke-linejoin:miter;stroke-opacity:1"
             d="m 631.42857,433.36218 29.28572,0"
             id="path3826"
             inkscape:connector-curvature="0" />
          <path
             inkscape:connector-curvature="0"
             id="path3828"
             d="m 631.42857,437.36218 29.28572,0"
             style="fill:none;stroke:#000000;stroke-width:1px;stroke-linecap:butt;stroke-linejoin:miter;stroke-opacity:1" />
          <path
             style="fill:none;stroke:#000000;stroke-width:1px;stroke-linecap:butt;stroke-linejoin:miter;stroke-opacity:1"
             d="m 631.42857,441.36218 29.28572,0"
             id="path3830"
             inkscape:connector-curvature="0" />
          <path
             inkscape:connector-curvature="0"
             id="path3832"
             d="m 631.42857,445.36218 29.28572,0"
             style="fill:none;stroke:#000000;stroke-width:1px;stroke-linecap:butt;stroke-linejoin:miter;stroke-opacity:1" />
          <path
             style="fill:none;stroke:#000000;stroke-width:1px;stroke-linecap:butt;stroke-linejoin:miter;stroke-opacity:1"
             d="m 631.42857,449.36218 29.28572,0"
             id="path3834"
             inkscape:connector-curvature="0" />
          <path
             inkscape:connector-curvature="0"
             id="path3836"
             d="m 631.42857,453.36218 29.28572,0"
             style="fill:none;stroke:#000000;stroke-width:1px;stroke-linecap:butt;stroke-linejoin:miter;stroke-opacity:1" />
          <path
             style="fill:none;stroke:#000000;stroke-width:1px;stroke-linecap:butt;stroke-linejoin:miter;stroke-opacity:1"
             d="m 631.42857,453.36218 29.28572,0"
             id="path3838"
             inkscape:connector-curvature="0" />
        </g>
      </g>
      <g
         transform="translate(518.57145,230)"
         id="g3937">
        <g
           id="g3909">
          <rect
             ry="19.171"
             transform="translate(0,52.362183)"
             y="395"
             x="-505.71429"
             height="98.571426"
             width="231.42857"
             id="rect3886"
             style="fill:none;stroke:#000000;stroke-width:2.9000001;stroke-miterlimit:4;stroke-opacity:1;stroke-dasharray:none" />
          <path
             inkscape:connector-curvature="0"
             id="rect3888"
             d="m -463.70537,469.88485 0,17.27196 -17.27196,0 0,20.42413 17.27196,0 0,17.27196 20.42413,0 0,-17.27196 17.27196,0 0,-20.42413 -17.27196,0 0,-17.27196 -20.42413,0 z"
             style="fill:none;stroke:#000000;stroke-width:1.50784361;stroke-miterlimit:4;stroke-opacity:1;stroke-dasharray:none" />
          <g
             transform="matrix(0.91749175,0,0,0.91749175,-30.156058,39.066184)"
             id="g3897">
            <rect
               style="fill:none;stroke:#000000;stroke-width:0.80000001;stroke-miterlimit:4;stroke-opacity:1;stroke-dasharray:none"
               id="rect3893"
               width="24.285715"
               height="7.8571429"
               x="-413.57144"
               y="470"
               transform="translate(0,52.362183)" />
            <rect
               y="522.36218"
               x="-381.57144"
               height="7.8571429"
               width="24.285715"
               id="rect3895"
               style="fill:none;stroke:#000000;stroke-width:0.80000001;stroke-miterlimit:4;stroke-opacity:1;stroke-dasharray:none" />
          </g>
          <g
             transform="translate(-4,0)"
             id="g3905">
            <path
               sodipodi:type="arc"
               style="fill:none;stroke:#000000;stroke-width:0.80000001;stroke-miterlimit:4;stroke-opacity:1;stroke-dasharray:none"
               id="path3901"
               sodipodi:cx="-351.42856"
               sodipodi:cy="282.14285"
               sodipodi:rx="12.142858"
               sodipodi:ry="12.142858"
               d="m -339.2857,282.14285 c 0,6.70632 -5.43654,12.14286 -12.14286,12.14286 -6.70631,0 -12.14286,-5.43654 -12.14286,-12.14286 0,-6.70631 5.43655,-12.14285 12.14286,-12.14285 6.70632,0 12.14286,5.43654 12.14286,12.14285 z"
               transform="translate(18.571429,233.07647)" />
            <path
               transform="translate(48.571429,233.07647)"
               d="m -339.2857,282.14285 c 0,6.70632 -5.43654,12.14286 -12.14286,12.14286 -6.70631,0 -12.14286,-5.43654 -12.14286,-12.14286 0,-6.70631 5.43655,-12.14285 12.14286,-12.14285 6.70632,0 12.14286,5.43654 12.14286,12.14285 z"
               sodipodi:ry="12.142858"
               sodipodi:rx="12.142858"
               sodipodi:cy="282.14285"
               sodipodi:cx="-351.42856"
               id="path3903"
               style="fill:none;stroke:#000000;stroke-width:0.80000001;stroke-miterlimit:4;stroke-opacity:1;stroke-dasharray:none"
               sodipodi:type="arc" />
          </g>
        </g>
        <g
           id="g3919"
           transform="translate(340,0)">
          <rect
             style="fill:none;stroke:#000000;stroke-width:2.9000001;stroke-miterlimit:4;stroke-opacity:1;stroke-dasharray:none"
             id="rect3921"
             width="231.42857"
             height="98.571426"
             x="-505.71429"
             y="395"
             transform="translate(0,52.362183)"
             ry="19.171" />
          <path
             style="fill:none;stroke:#000000;stroke-width:1.50784361;stroke-miterlimit:4;stroke-opacity:1;stroke-dasharray:none"
             d="m -463.70537,469.88485 0,17.27196 -17.27196,0 0,20.42413 17.27196,0 0,17.27196 20.42413,0 0,-17.27196 17.27196,0 0,-20.42413 -17.27196,0 0,-17.27196 -20.42413,0 z"
             id="path3923"
             inkscape:connector-curvature="0" />
          <g
             id="g3925"
             transform="matrix(0.91749175,0,0,0.91749175,-30.156058,39.066184)">
            <rect
               transform="translate(0,52.362183)"
               y="470"
               x="-413.57144"
               height="7.8571429"
               width="24.285715"
               id="rect3927"
               style="fill:none;stroke:#000000;stroke-width:0.80000001;stroke-miterlimit:4;stroke-opacity:1;stroke-dasharray:none" />
            <rect
               style="fill:none;stroke:#000000;stroke-width:0.80000001;stroke-miterlimit:4;stroke-opacity:1;stroke-dasharray:none"
               id="rect3929"
               width="24.285715"
               height="7.8571429"
               x="-381.57144"
               y="522.36218" />
          </g>
          <g
             id="g3931"
             transform="translate(-4,0)">
            <path
               transform="translate(18.571429,233.07647)"
               d="m -339.2857,282.14285 c 0,6.70632 -5.43654,12.14286 -12.14286,12.14286 -6.70631,0 -12.14286,-5.43654 -12.14286,-12.14286 0,-6.70631 5.43655,-12.14285 12.14286,-12.14285 6.70632,0 12.14286,5.43654 12.14286,12.14285 z"
               sodipodi:ry="12.142858"
               sodipodi:rx="12.142858"
               sodipodi:cy="282.14285"
               sodipodi:cx="-351.42856"
               id="path3933"
               style="fill:none;stroke:#000000;stroke-width:0.80000001;stroke-miterlimit:4;stroke-opacity:1;stroke-dasharray:none"
               sodipodi:type="arc" />
            <path
               sodipodi:type="arc"
               style="fill:none;stroke:#000000;stroke-width:0.80000001;stroke-miterlimit:4;stroke-opacity:1;stroke-dasharray:none"
               id="path3935"
               sodipodi:cx="-351.42856"
               sodipodi:cy="282.14285"
               sodipodi:rx="12.142858"
               sodipodi:ry="12.142858"
               d="m -339.2857,282.14285 c 0,6.70632 -5.43654,12.14286 -12.14286,12.14286 -6.70631,0 -12.14286,-5.43654 -12.14286,-12.14286 0,-6.70631 5.43655,-12.14285 12.14286,-12.14285 6.70632,0 12.14286,5.43654 12.14286,12.14285 z"
               transform="translate(48.571429,233.07647)" />
          </g>
        </g>
      </g>
      <path
         sodipodi:nodetypes="cszsc"
         inkscape:connector-curvature="0"
         id="path3957"
         d="m 477.16353,678.26724 c 0,0 -4.72009,-17.19065 -3.47254,-23.89102 1.24756,-6.70036 2.91693,-11.251 8.75079,-18.19607 5.83385,-6.94506 11.6974,-15.38534 9.58419,-23.19652 -2.25954,-8.35203 -12.72844,-14.84748 -27.50246,-15.55694"
         style="fill:none;stroke:#000000;stroke-width:2.06129527;stroke-linecap:butt;stroke-linejoin:miter;stroke-miterlimit:4;stroke-opacity:1;stroke-dasharray:none" />
      <path
         style="fill:none;stroke:#000000;stroke-width:2.06129527;stroke-linecap:butt;stroke-linejoin:miter;stroke-miterlimit:4;stroke-opacity:1;stroke-dasharray:none"
         d="m 119.82658,678.26724 c 0,0 4.72009,-17.19065 3.47254,-23.89102 -1.24756,-6.70036 -2.91693,-11.251 -8.75079,-18.19607 -5.83385,-6.94506 -11.6974,-15.38534 -9.58419,-23.19652 2.25954,-8.35203 12.72844,-14.84748 27.50246,-15.55694"
         id="path3961"
         inkscape:connector-curvature="0"
         sodipodi:nodetypes="cszsc" />
      <path
         id="path4038"
         d="m 298.44514,628.31359 c -11.88562,0 -21.45545,7.66933 -21.45545,17.19455 l 0,28.98452 c -11.3647,5.70687 -18.89112,15.83144 -18.89112,27.41653 l 0,60.08417 c 0,17.912 17.99589,32.33403 40.34657,32.33403 22.35068,0 40.33825,-14.42203 40.33825,-32.33403 l 0,-60.08417 c 0,-11.58177 -7.52354,-21.70209 -18.8828,-27.40986 l 0,-28.99119 c 0,-9.52522 -9.56983,-17.19455 -21.45545,-17.19455 z"
         style="fill:#ffffff;stroke:#000000;stroke-width:1.26408327;stroke-miterlimit:4;stroke-opacity:1;stroke-dasharray:none"
         inkscape:connector-curvature="0" />
      <path
         id="path4040"
         d="m 312.60333,640.68978 c 0,4.83564 -6.2547,8.7557 -13.97026,8.7557 -7.71556,0 -13.97025,-3.92006 -13.97025,-8.7557 0,-4.83564 6.25469,-8.7557 13.97025,-8.7557 7.71556,0 13.97026,3.92006 13.97026,8.7557 z"
         style="fill:#ffffff;stroke:#000000;stroke-width:1.12416136;stroke-miterlimit:4;stroke-opacity:1"
         inkscape:connector-curvature="0" />
      <text
         transform="scale(0.60253861,1.6596447)"
         sodipodi:linespacing="125%"
         id="text4107"
         y="309.26941"
         x="282.14822"
         style="font-size:34.01763916px;font-style:normal;font-weight:normal;line-height:125%;letter-spacing:0px;word-spacing:0px;fill:#000000;fill-opacity:1;stroke:none;font-family:Sans"
         xml:space="preserve"><tspan
           style="font-size:34.01763916px;font-style:normal;font-variant:normal;font-weight:900;font-stretch:normal;text-align:start;line-height:125%;writing-mode:lr-tb;text-anchor:start;font-family:Arial Black;-inkscape-font-specification:'Arial Black, Heavy'"
           id="tspan4111"
           y="309.26941"
           x="282.14822"
           sodipodi:role="line">STREET FIGHTER 2</tspan></text>
      <text
         sodipodi:linespacing="125%"
         id="text4115"
         y="546.00903"
         x="177.05719"
         style="font-size:18.18017197px;font-style:normal;font-weight:normal;line-height:125%;letter-spacing:0px;word-spacing:0px;fill:#000000;fill-opacity:1;stroke:none;font-family:Sans"
         xml:space="preserve"><tspan
           y="546.00903"
           x="177.05719"
           id="tspan4117"
           sodipodi:role="line">THE WORLD WARRIOR</tspan></text>
      <text
         sodipodi:linespacing="125%"
         id="text4119"
         y="589.10846"
         x="167.58368"
         style="font-size:32.49448776px;font-style:normal;font-weight:normal;line-height:125%;letter-spacing:0px;word-spacing:0px;fill:#000000;fill-opacity:1;stroke:none;font-family:Sans"
         xml:space="preserve"><tspan
           y="589.10846"
           x="167.58368"
           id="tspan4121"
           sodipodi:role="line">PRESS START</tspan></text>
      <text
         transform="scale(1.1170521,0.89521338)"
         sodipodi:linespacing="125%"
         id="text4042"
         y="827.18274"
         x="239.62091"
         style="font-size:26.81424904px;font-style:normal;font-weight:normal;line-height:125%;letter-spacing:0px;word-spacing:0px;fill:#000000;fill-opacity:1;stroke:none;font-family:Sans"
         xml:space="preserve"><tspan
           y="827.18274"
           x="239.62091"
           id="tspan4044"
           sodipodi:role="line">XXX</tspan></text>
    </g>
  </g>
</svg>
